<svg width="64" height="64" viewBox="0 0 64 64" fill="none" xmlns="http://www.w3.org/2000/svg">
<rect width="64" height="64" rx="20" fill="#E8F2FF"/>
<rect width="64" height="64" rx="20" fill="#F8F9FD"/>
<path d="M41.5335 28.9072C41.5335 23.6572 37.2499 19.3736 31.9999 19.3736C26.7499 19.3736 22.4664 23.6572 22.4664 28.9072C22.4664 29.6635 22.55 30.4198 22.76 31.1745C23.0127 32.3918 23.4737 33.1482 24.1037 34.1982C24.23 34.4508 24.3974 34.7018 24.5664 34.9955C24.7764 35.3318 24.9437 35.6682 25.1537 35.9618C25.9937 37.3482 26.4974 38.1455 26.4974 39.7845V43.7318C26.4974 44.7392 27.211 45.5382 28.1774 45.7055C28.5974 47.8482 29.8574 49.1918 32 49.1918C34.1427 49.1918 35.4437 47.8482 35.8227 45.7055C36.7891 45.5382 37.5027 44.6982 37.5027 43.7318V39.7845C37.5027 38.1472 38.0064 37.3072 38.8464 35.9618C39.0137 35.6682 39.2237 35.3318 39.4337 34.9955C39.601 34.7018 39.77 34.4492 39.8964 34.1982C40.5264 33.1482 40.9891 32.3918 41.24 31.1745C41.45 30.4198 41.5337 29.6635 41.5337 28.9072H41.5335ZM35.8635 40.7936H28.2199V39.8273C28.2199 39.6173 28.22 39.4499 28.1773 39.2809H35.8637C35.8637 39.4483 35.8211 39.6173 35.8211 39.8273L35.8227 40.7936H35.8635ZM35.4862 44.1126H28.5133C28.3033 44.1126 28.177 43.9452 28.177 43.7762V42.4736H35.8206V43.7762C35.8633 43.9436 35.6959 44.1126 35.4859 44.1126H35.4862ZM31.9998 47.5562C31.5372 47.5562 30.3625 47.5562 29.8998 45.7926H34.1427C33.68 47.5562 32.4627 47.5562 32 47.5562H31.9998ZM39.6027 30.8398C39.3927 31.7635 39.0564 32.3935 38.469 33.3598C38.3017 33.6125 38.1754 33.8635 38.0064 34.1571C37.7964 34.4935 37.629 34.8298 37.46 35.0808C36.9564 35.9208 36.4937 36.6771 36.2 37.5581H27.8836C27.5899 36.6755 27.1699 35.9208 26.6236 35.0808C26.4563 34.7871 26.2463 34.4935 26.0773 34.1571C25.9099 33.8635 25.7409 33.5698 25.6146 33.3598C25.0273 32.3525 24.6909 31.7635 24.4809 30.7971C24.3136 30.1671 24.2283 29.5371 24.2283 28.9071C24.2283 24.5807 27.7556 21.0536 32.0818 21.0536C36.4083 21.0536 39.9354 24.5809 39.9354 28.9071C39.8534 29.5371 39.7697 30.1671 39.6024 30.8398H39.6027Z" fill="#4F46BA"/>
<path d="M49.3036 28.0671H45.8172C45.3546 28.0671 44.9772 28.4445 44.9772 28.9071C44.9772 29.3698 45.3546 29.7471 45.8172 29.7471H49.3036C49.7662 29.7471 50.1436 29.3698 50.1436 28.9071C50.1436 28.4461 49.7662 28.0671 49.3036 28.0671Z" fill="#4F46BA"/>
<path d="M41.7435 20.0036C41.9535 20.0036 42.1635 19.9199 42.3309 19.7509L44.8082 17.2736C45.1445 16.9373 45.1445 16.4336 44.8082 16.0973C44.4719 15.7609 43.9682 15.7609 43.6319 16.0973L41.1545 18.5746C40.8182 18.9109 40.8182 19.4146 41.1545 19.7509C41.3235 19.9199 41.5335 20.0036 41.7435 20.0036H41.7435Z" fill="#4F46BA"/>
<path d="M32 15.93C32.4626 15.93 32.84 15.5527 32.84 15.09V11.6037C32.84 11.141 32.4626 10.7637 32 10.7637C31.5373 10.7637 31.16 11.141 31.16 11.6037V15.09C31.16 15.5527 31.5373 15.93 32 15.93Z" fill="#4F46BA"/>
<path d="M21.6671 19.7528C21.8345 19.9202 22.0445 20.0055 22.2544 20.0055C22.4644 20.0055 22.6744 19.9218 22.8418 19.7528C23.1781 19.4165 23.1781 18.9128 22.8418 18.5765L20.3644 16.0992C20.0281 15.7628 19.5244 15.7628 19.1881 16.0992C18.8518 16.4355 18.8518 16.9392 19.1881 17.2755L21.6671 19.7528Z" fill="#4F46BA"/>
<path d="M18.2236 28.0671H14.7372C14.2745 28.0671 13.8972 28.4445 13.8972 28.9071C13.8972 29.3698 14.2746 29.7471 14.7372 29.7471H18.2236C18.6862 29.7471 19.0636 29.3698 19.0636 28.9071C19.0636 28.4461 18.6862 28.0671 18.2236 28.0671Z" fill="#4F46BA"/>
<path d="M21.6671 38.0636L19.1898 40.5409C18.8535 40.8772 18.8535 41.3809 19.1898 41.7173C19.3572 41.8846 19.5672 41.9699 19.7771 41.9699C19.9871 41.9699 20.1971 41.8862 20.3645 41.7173L22.8418 39.2399C23.1781 38.9036 23.1781 38.3999 22.8418 38.0636C22.5071 37.7273 21.9624 37.7273 21.6671 38.0636H21.6671Z" fill="#4F46BA"/>
<path d="M42.3328 38.0636C41.9965 37.7273 41.4928 37.7273 41.1565 38.0636C40.8201 38.3999 40.8202 38.9036 41.1565 39.2399L43.6338 41.7173C43.8012 41.8846 44.0112 41.9699 44.2211 41.9699C44.4311 41.9699 44.6411 41.8862 44.8085 41.7173C45.1448 41.3809 45.1448 40.8772 44.8085 40.5409L42.3328 38.0636Z" fill="#4F46BA"/>
</svg>
