<svg width="64" height="64" viewBox="0 0 64 64" fill="none" xmlns="http://www.w3.org/2000/svg">
<rect width="64" height="64" rx="20" fill="#E8F2FF"/>
<rect width="64" height="64" rx="20" fill="#F8F9FD"/>
<path d="M47.3188 22.1032L41.8968 16.6812C41.7859 16.5687 41.6374 16.5078 41.4796 16.5078C41.3234 16.5078 41.1734 16.5687 41.0624 16.6812L32.4108 25.3312L33.2467 26.1655L41.4795 17.9327L46.0655 22.5203L44.6312 23.9547L42.0327 21.3547C41.8015 21.125 41.4296 21.125 41.1984 21.3547C40.9671 21.5875 40.9671 21.9594 41.1984 22.1891L43.7968 24.7891L42.153 26.4328L40.5124 24.7922C40.2812 24.5594 39.9093 24.5594 39.678 24.7922C39.4468 25.0219 39.4468 25.3953 39.678 25.6265L41.3187 27.2672L39.6749 28.9109L37.0749 26.3109C36.8437 26.0797 36.4718 26.0797 36.2406 26.3109C36.0093 26.5422 36.0093 26.9141 36.2406 27.1453L38.8406 29.7453L37.8374 30.7484L38.6718 31.5828L47.3234 22.9328C47.5484 22.7078 47.5484 22.3343 47.3187 22.1031L47.3188 22.1032Z" fill="#4F46BA"/>
<path d="M29.7516 38.8344L27.1532 36.236C26.9219 36.0047 26.55 36.0047 26.3188 36.236C26.0876 36.4672 26.0876 36.8391 26.3188 37.0703L28.9172 39.6688L27.2735 41.3141L25.6328 39.6734C25.4016 39.4422 25.0282 39.4422 24.7969 39.6734C24.5657 39.9047 24.5657 40.2766 24.7969 40.5078L26.4376 42.1484L24.7938 43.7906L22.1954 41.1938C21.9641 40.9609 21.5907 40.9609 21.3594 41.1938C21.1282 41.4234 21.1282 41.7969 21.3594 42.0281L23.9579 44.6266L22.5235 46.0625L17.9375 41.4733L26.1687 33.2421L25.3344 32.4077L16.6844 41.0561C16.4531 41.2874 16.4531 41.6592 16.6844 41.8905L22.1064 47.3141C22.2173 47.4235 22.3657 47.4875 22.5236 47.4875C22.6798 47.4875 22.8298 47.4234 22.9408 47.3141L31.5908 38.6641L30.7548 37.8297L29.7516 38.8344Z" fill="#4F46BA"/>
<path d="M44.6752 39.2656L25.116 19.7064L23.8098 18.397C22.8848 17.4689 21.302 17.4126 20.4457 18.272L18.2722 20.447C17.3816 21.3376 17.4394 22.847 18.3988 23.8079L39.266 44.6767C39.5379 44.9455 39.991 45.3924 44.9708 46.5205C45.0739 46.5424 45.177 46.5549 45.2802 46.5549C45.6271 46.5549 45.9505 46.4236 46.1895 46.183C46.4958 45.8736 46.6192 45.4221 46.5208 44.9736C45.3927 39.9844 44.9427 39.5344 44.6755 39.2656L44.6752 39.2656ZM19.2344 22.972C18.7328 22.472 18.675 21.7126 19.1063 21.2798L21.2782 19.1079C21.4641 18.9204 21.725 18.8173 22.0094 18.8173C22.3563 18.8173 22.7078 18.9688 22.9719 19.2329L23.8625 20.1235L20.1234 23.8626L19.2344 22.972ZM39.1156 41.3252C38.9093 41.2611 38.6844 41.3158 38.5312 41.4658C38.3781 41.6174 38.3172 41.8392 38.375 42.047L38.4015 42.1423L20.9596 24.6971L24.7002 20.9581L42.0298 38.2909C41.8267 38.2377 41.6126 38.2909 41.4641 38.4362C41.311 38.5877 41.2517 38.8096 41.3095 39.0143L41.6173 40.1237L40.5829 39.808C40.3767 39.744 40.1517 39.8002 39.9986 39.9518C39.8439 40.1002 39.7845 40.3252 39.8423 40.533L40.1501 41.6393L39.1156 41.3252ZM40.1 43.8408L39.8031 42.7689L40.8312 43.0845C41.0406 43.1455 41.2718 43.0877 41.425 42.933C41.575 42.7814 41.6343 42.5611 41.575 42.3564L41.2687 41.2533L42.3 41.5674C42.5046 41.6314 42.7296 41.5752 42.8843 41.4236C43.0374 41.2752 43.0984 41.0517 43.0406 40.8455L42.7296 39.7252L43.764 40.0283L43.8421 40.1049C43.9265 40.1892 44.0765 40.4517 44.3077 41.1517L41.1546 44.308C40.4484 44.0721 40.1874 43.9252 40.0999 43.8408L40.1 43.8408ZM45.3516 45.3533C45.3375 45.3658 45.3125 45.3752 45.2828 45.3752L45.2359 45.3674C44.0547 45.1017 43.1484 44.8752 42.4406 44.6846L44.6875 42.4377C44.8781 43.1439 45.1031 44.0502 45.3718 45.2299C45.3797 45.283 45.3718 45.3314 45.3515 45.3533L45.3516 45.3533Z" fill="#4F46BA"/>
</svg>
