<svg width="44" height="44" viewBox="0 0 44 44" fill="none" xmlns="http://www.w3.org/2000/svg">
<path d="M3.38771 23.9351H11.0877L12.2324 33.3075C12.2771 33.7475 12.6277 34.0552 13.0677 34.0999H13.1124C13.5077 34.0999 13.86 33.8352 13.9477 33.4399L18.3477 16.4123L23.0126 31.8572C23.1449 32.2525 23.4973 32.5172 23.9373 32.4725C24.3326 32.4278 24.6849 32.1202 24.7296 31.6802L25.6543 23.4953H33.5743C34.059 23.4953 34.4543 23.1 34.4543 22.6153V22.5706C34.4543 22.5259 34.4543 22.4383 34.4096 22.3953C34.4096 22.3506 34.4096 22.3506 34.365 22.3076C34.365 22.2629 34.3203 22.22 34.3203 22.1753C34.3203 22.1753 34.3203 22.1306 34.2756 22.1306C34.2309 22.0859 34.1879 22.0429 34.1432 21.9553L34.0986 21.9106C34.0539 21.8659 34.0109 21.8659 33.9662 21.8229H33.9215C31.5015 20.5476 27.9366 17.4229 27.4966 14.8278C27.3643 13.9478 27.5843 13.1555 28.2443 12.4955C29.6519 11.0002 31.6319 11.9678 33.0394 13.0231C33.3471 13.2431 33.7871 13.2431 34.0947 13.0231C35.5024 11.9678 37.4394 11.0431 38.8471 12.5384C39.3748 13.1108 39.6395 13.7261 39.6395 14.4737C39.5948 15.8814 38.5395 17.5984 36.6471 19.3586C36.2948 19.7109 36.2518 20.2386 36.6025 20.5909C36.9548 20.9433 37.4825 20.9863 37.8348 20.6356C39.4195 19.1833 41.3101 16.8956 41.3995 14.5205C41.4442 13.3329 41.0042 12.2329 40.1242 11.3529C38.4519 9.59286 36.0766 9.59286 33.5691 11.3082C31.0167 9.59288 28.6415 9.63582 26.9691 11.3529C25.9568 12.4082 25.5168 13.7729 25.7815 15.1805C26.1768 17.5558 28.3767 20.0654 30.6215 21.7805H24.9477C24.5077 21.7805 24.1124 22.1329 24.0677 22.5729L23.54 27.3253L19.1847 12.9377C19.0524 12.5424 18.7447 12.3224 18.3047 12.3224C17.9094 12.3224 17.5571 12.5871 17.4694 12.9824L13.4647 28.5576L12.76 22.9682C12.7153 22.5282 12.32 22.1759 11.88 22.1759H3.38757C2.90286 22.1759 2.50757 22.5712 2.50757 23.0559C2.50757 23.5406 2.9046 23.9359 3.38757 23.9359L3.38771 23.9351Z" fill="black"/>
</svg>
