<svg width="40" height="40" viewBox="0 0 40 40" fill="none" xmlns="http://www.w3.org/2000/svg">
<path d="M20.7999 3.19995C14.2951 3.19995 8.3935 6.95151 5.6187 12.7999H3.19994C2.92337 12.7999 2.66558 12.9437 2.52026 13.1796C2.37494 13.4156 2.36088 13.7093 2.48432 13.9578L5.68432 20.3578C5.82026 20.6281 6.0968 20.8 6.39996 20.8C6.70312 20.8 6.97964 20.6281 7.1156 20.3578L10.3156 13.9578C10.439 13.7093 10.4265 13.4156 10.2797 13.1796C10.1344 12.9437 9.87654 12.7999 9.59998 12.7999H7.41406C10.0484 7.90315 15.1733 4.79995 20.8001 4.79995C29.1813 4.79995 36.0001 11.6188 36.0001 19.9999C36.0001 28.3811 29.1813 35.1999 20.8001 35.1999C14.5753 35.1999 9.04206 31.4687 6.70646 25.6935C6.54084 25.2842 6.07678 25.0873 5.66426 25.2513C5.2549 25.417 5.05646 25.8826 5.22206 26.2935C7.80486 32.6763 13.9189 36.7999 20.8001 36.7999C30.0641 36.7999 37.6001 29.2639 37.6001 19.9999C37.6001 10.7359 30.0641 3.19995 20.8001 3.19995H20.7999ZM6.3999 18.2107L4.49366 14.3998H8.30458L6.3999 18.2107ZM23.9999 21.5998C23.9999 22.9233 22.9233 23.9998 21.5999 23.9998V25.1998C21.5999 25.642 21.2421 25.9998 20.7999 25.9998C20.3577 25.9998 19.9999 25.642 19.9999 25.1998V23.9998H18.7999C18.3577 23.9998 17.9999 23.642 17.9999 23.1998C17.9999 22.7576 18.3577 22.3998 18.7999 22.3998H21.5999C22.0405 22.3998 22.3999 22.0405 22.3999 21.5998C22.3999 21.1592 22.0405 20.7998 21.5999 20.7998H19.9999C18.6765 20.7998 17.5999 19.7233 17.5999 18.3998C17.5999 17.0764 18.6765 15.9998 19.9999 15.9998V14.7998C19.9999 14.3576 20.3577 13.9998 20.7999 13.9998C21.2421 13.9998 21.5999 14.3576 21.5999 14.7998V15.9998H22.7999C23.2421 15.9998 23.5999 16.3576 23.5999 16.7998C23.5999 17.242 23.2421 17.5998 22.7999 17.5998H19.9999C19.5593 17.5998 19.1999 17.9592 19.1999 18.3998C19.1999 18.8405 19.5593 19.1998 19.9999 19.1998H21.5999C22.9233 19.1998 23.9999 20.2764 23.9999 21.5998ZM20.7999 29.1998C15.7263 29.1998 11.5999 25.0734 11.5999 19.9998C11.5999 14.9262 15.7263 10.7998 20.7999 10.7998C25.8735 10.7998 29.9999 14.9262 29.9999 19.9998C29.9999 25.0734 25.8735 29.1998 20.7999 29.1998ZM20.7999 12.3998C16.6091 12.3998 13.1999 15.8092 13.1999 19.9998C13.1999 24.1905 16.6093 27.5998 20.7999 27.5998C24.9905 27.5998 28.3999 24.1905 28.3999 19.9998C28.3999 15.8092 24.9905 12.3998 20.7999 12.3998Z" fill="black"/>
</svg>
