<svg width="40" height="40" viewBox="0 0 40 40" fill="none" xmlns="http://www.w3.org/2000/svg">
<path d="M19.9968 10.0829L13.428 12.1797C13.3983 13.9141 13.3233 15.6125 13.253 17.3189C13.2186 18.1033 13.1889 18.8955 13.1593 19.6627L13.153 19.7502C13.1061 20.9564 13.0483 22.5502 13.4639 23.6049C13.6389 24.0564 13.9327 24.4783 14.2671 24.8642C14.6249 25.2736 15.0343 25.6486 15.4327 25.9955C16.8327 27.208 18.4327 28.3627 19.9907 29.4705C21.5548 28.3627 23.1548 27.2142 24.5487 25.9955C24.9471 25.6502 25.3565 25.2752 25.7143 24.8642C26.0534 24.4783 26.3409 24.0564 26.5175 23.6049C26.9331 22.544 26.8753 20.9502 26.8284 19.7502L26.8221 19.6627C26.7925 18.9018 26.7581 18.1096 26.7284 17.3189C26.6581 15.6143 26.5815 13.9143 26.5534 12.1797L19.9846 10.0829H19.9968ZM12.6264 11.1251L19.8044 8.83442C19.9216 8.7938 20.056 8.7938 20.1857 8.83442L27.3513 11.1188C27.6091 11.1891 27.8028 11.4297 27.8075 11.711C27.8309 13.5501 27.9122 15.4016 27.9887 17.2658C28.0231 18.033 28.0528 18.8064 28.0825 19.6158L28.0887 19.7033C28.1419 21.022 28.2059 22.7674 27.6903 24.0625C27.4559 24.6547 27.0872 25.1937 26.6653 25.6797C26.2606 26.1484 25.8044 26.564 25.37 26.939C23.8231 28.2812 22.0715 29.5281 20.378 30.7234L20.367 30.7343C20.1561 30.8922 19.8639 30.9047 19.6343 30.7406L19.6108 30.7234C17.9171 29.5218 16.1655 28.2796 14.6188 26.939C14.186 26.564 13.7345 26.1484 13.3235 25.6797C12.9016 25.1938 12.5329 24.6547 12.2985 24.0625C11.7891 22.7672 11.8532 21.0218 11.9063 19.7033L11.9126 19.6158C11.9422 18.8127 11.9766 18.0392 12.0063 17.2658C12.0876 15.4033 12.1641 13.5564 12.1876 11.711C12.1938 11.4469 12.3579 11.2079 12.6204 11.1251H12.6264Z" fill="black"/>
<path d="M20.1907 5.66566L30.0627 8.81722C30.3268 8.89847 30.4955 9.14534 30.4955 9.40942C30.4955 12.8141 30.6237 15.4158 30.7237 17.5002C31.1565 26.3938 31.1627 26.5238 20.3533 34.2518C20.1251 34.4096 19.8314 34.3987 19.6205 34.2456C8.82847 26.5236 8.83447 26.4004 9.26127 17.5064C9.36127 15.4142 9.4894 12.8128 9.4894 9.41557C9.4894 9.11713 9.70033 8.86557 9.9816 8.80621L19.8064 5.67185C19.9345 5.63123 20.0705 5.63747 20.1876 5.67185L20.1907 5.66566ZM29.2547 9.86086L20.0031 6.90774L10.7515 9.86086C10.7406 13.0077 10.6172 15.5201 10.5172 17.5593C10.125 25.6921 10.1125 25.9029 20.0032 32.9749C29.894 25.8969 29.8812 25.6857 29.4892 17.5593C29.3892 15.5202 29.2673 13.0061 29.2548 9.86086H29.2547Z" fill="black"/>
<path d="M24.5608 16.6625C24.8061 16.4172 25.1998 16.4172 25.4451 16.6625C25.6904 16.9078 25.6904 17.3016 25.4451 17.5469L18.9359 24.0561C18.6906 24.3014 18.2968 24.3014 18.0516 24.0561L14.5531 20.5576C14.3078 20.3123 14.3078 19.9185 14.5531 19.6733C14.7984 19.4279 15.1922 19.4279 15.4375 19.6733L18.4953 22.7311L24.5657 16.6607L24.5608 16.6625Z" fill="black"/>
<path d="M9.80796 21.9249C10.1533 21.9249 10.4345 22.2061 10.4345 22.5514C10.4345 22.8968 10.1533 23.178 9.80796 23.178H4.99717C4.65185 23.178 4.37061 22.8968 4.37061 22.5514V13.125C4.37061 12.7797 4.65185 12.4985 4.99717 12.4985H9.95356C10.2989 12.4985 10.5801 12.7797 10.5801 13.125C10.5801 13.4704 10.2989 13.7516 9.95356 13.7516H5.62397V21.9252L9.80796 21.9249ZM30.0392 13.7513C29.6939 13.7513 29.4126 13.47 29.4126 13.1247C29.4126 12.7794 29.6939 12.4982 30.0392 12.4982H34.9956C35.3409 12.4982 35.6221 12.7794 35.6221 13.1247V22.5511C35.6221 22.8964 35.3409 23.1777 34.9956 23.1777H30.1848C29.8395 23.1777 29.5582 22.8964 29.5582 22.5511C29.5582 22.2058 29.8395 21.9246 30.1848 21.9246H34.3676V13.751H30.038L30.0392 13.7513Z" fill="black"/>
</svg>
