<svg width="91" height="17" viewBox="0 0 91 17" fill="none" xmlns="http://www.w3.org/2000/svg">
<path d="M9.08558 2.43824C9.4136 1.5818 10.6253 1.5818 10.9533 2.43824L12.0229 5.23102C12.1711 5.6179 12.5425 5.87336 12.9568 5.87336L16.0202 5.87336C17.0282 5.87336 17.403 7.19577 16.5449 7.72464L14.3648 9.06838C13.9556 9.32063 13.7837 9.82839 13.9557 10.2773L14.8519 12.6173C15.1939 13.5104 14.2075 14.3281 13.3933 13.8263L10.5441 12.0701C10.2224 11.8718 9.81643 11.8718 9.49473 12.0701L6.64554 13.8263C5.83139 14.3281 4.84492 13.5104 5.18699 12.6173L6.0832 10.2773C6.25515 9.82839 6.0833 9.32063 5.67405 9.06838L3.49395 7.72464C2.63589 7.19577 3.0107 5.87336 4.01865 5.87336L7.08209 5.87336C7.49638 5.87336 7.86777 5.6179 8.01594 5.23102L9.08558 2.43824Z" fill="#F9896B"/>
<path d="M26.767 2.43824C27.095 1.5818 28.3067 1.5818 28.6347 2.43824L29.7043 5.23102C29.8525 5.6179 30.2239 5.87336 30.6382 5.87336L33.7016 5.87336C34.7096 5.87336 35.0844 7.19577 34.2263 7.72464L32.0462 9.06838C31.637 9.32063 31.4651 9.82839 31.6371 10.2773L32.5333 12.6173C32.8753 13.5104 31.8889 14.3281 31.0747 13.8263L28.2255 12.0701C27.9038 11.8718 27.4978 11.8718 27.1761 12.0701L24.3269 13.8263C23.5128 14.3281 22.5263 13.5104 22.8684 12.6173L23.7646 10.2773C23.9365 9.82839 23.7647 9.32063 23.3554 9.06838L21.1753 7.72464C20.3173 7.19577 20.6921 5.87336 21.7 5.87336L24.7635 5.87336C25.1778 5.87336 25.5492 5.6179 25.6973 5.23102L26.767 2.43824Z" fill="#F9896B"/>
<path d="M44.4484 2.43824C44.7764 1.5818 45.9881 1.5818 46.3161 2.43824L47.3857 5.23102C47.5339 5.6179 47.9053 5.87336 48.3196 5.87336L51.383 5.87336C52.391 5.87336 52.7658 7.19577 51.9077 7.72464L49.7276 9.06838C49.3183 9.32063 49.1465 9.82839 49.3185 10.2773L50.2147 12.6173C50.5567 13.5104 49.5703 14.3281 48.7561 13.8263L45.9069 12.0701C45.5852 11.8718 45.1792 11.8718 44.8575 12.0701L42.0083 13.8263C41.1942 14.3281 40.2077 13.5104 40.5498 12.6173L41.446 10.2773C41.6179 9.82839 41.4461 9.32063 41.0368 9.06838L38.8567 7.72464C37.9987 7.19577 38.3735 5.87336 39.3814 5.87336L42.4449 5.87336C42.8592 5.87336 43.2306 5.6179 43.3787 5.23102L44.4484 2.43824Z" fill="#F9896B"/>
<path d="M62.1295 2.43824C62.4575 1.5818 63.6692 1.5818 63.9972 2.43824L65.0669 5.23102C65.215 5.6179 65.5864 5.87336 66.0007 5.87336L69.0642 5.87336C70.0721 5.87336 70.4469 7.19577 69.5889 7.72464L67.4088 9.06838C66.9995 9.32063 66.8277 9.82839 66.9996 10.2773L67.8958 12.6173C68.2379 13.5104 67.2514 14.3281 66.4373 13.8263L63.5881 12.0701C63.2664 11.8718 62.8604 11.8718 62.5387 12.0701L59.6895 13.8263C58.8753 14.3281 57.8889 13.5104 58.2309 12.6173L59.1271 10.2773C59.2991 9.82839 59.1272 9.32063 58.718 9.06838L56.5379 7.72464C55.6798 7.19577 56.0546 5.87336 57.0626 5.87336L60.126 5.87336C60.5403 5.87336 60.9117 5.6179 61.0599 5.23102L62.1295 2.43824Z" fill="#F9896B"/>
<path d="M79.8109 2.43824C80.1389 1.5818 81.3506 1.5818 81.6786 2.43824L82.7483 5.23102C82.8964 5.6179 83.2678 5.87336 83.6821 5.87336L86.7456 5.87336C87.7535 5.87336 88.1283 7.19577 87.2703 7.72464L85.0901 9.06838C84.6809 9.32063 84.5091 9.82839 84.681 10.2773L85.5772 12.6173C85.9193 13.5104 84.9328 14.3281 84.1187 13.8263L81.2695 12.0701C80.9478 11.8718 80.5418 11.8718 80.2201 12.0701L77.3709 13.8263C76.5567 14.3281 75.5703 13.5104 75.9123 12.6173L76.8085 10.2773C76.9805 9.82839 76.8086 9.32063 76.3994 9.06838L74.2193 7.72464C73.3612 7.19577 73.736 5.87336 74.744 5.87336L77.8074 5.87336C78.2217 5.87336 78.5931 5.6179 78.7413 5.23102L79.8109 2.43824Z" fill="#F9896B"/>
</svg>
