<svg width="70" height="70" viewBox="0 0 70 70" fill="none" xmlns="http://www.w3.org/2000/svg">
<circle cx="35" cy="35" r="35" fill="#3734A9"/>
<path d="M50 19.2663L49.2177 24.8892C47.653 24.7577 46.3817 25.0207 45.4038 25.6784C44.4259 26.3032 43.7413 27.2239 43.3502 28.4406C42.9916 29.6243 42.9264 31.0054 43.1546 32.5838H50V46H36.7003V32.5838C36.7003 27.8487 37.7923 24.2644 39.9763 21.8311C42.1604 19.3649 45.5016 18.5099 50 19.2663ZM32.2997 19.2663L31.5173 24.8892C29.9527 24.7577 28.6814 25.0207 27.7035 25.6784C26.7256 26.3032 26.041 27.2239 25.6498 28.4406C25.2913 29.6243 25.2261 31.0054 25.4543 32.5838H32.2997V46H19V32.5838C19 27.8487 20.092 24.2644 22.276 21.8311C24.46 19.3649 27.8013 18.5099 32.2997 19.2663Z" fill="white"/>
</svg>
