<svg width="64" height="64" viewBox="0 0 64 64" fill="none" xmlns="http://www.w3.org/2000/svg">
<rect width="64" height="64" rx="20" fill="#E8F2FF"/>
<rect width="64" height="64" rx="20" fill="#F8F9FD"/>
<path d="M46.6312 35.128H44.5796V18.728C44.5734 17.6623 43.7093 16.8014 42.6437 16.7999H21.3561C20.2858 16.8014 19.4202 17.6702 19.4202 18.7405V35.1405H17.3686C16.9264 35.1405 16.5686 35.4983 16.5686 35.9405V45.2593C16.5686 46.3296 17.4343 47.1984 18.5046 47.1999H45.4954C46.5657 47.1984 47.4313 46.3296 47.4313 45.2593V35.9281C47.4313 35.7156 47.3485 35.5125 47.1985 35.3625C47.0485 35.2125 46.8438 35.1281 46.6313 35.1281L46.6312 35.128ZM21.0312 18.728C21.0312 18.542 21.1812 18.3905 21.3687 18.3874H42.6439C42.8298 18.3905 42.9798 18.542 42.9798 18.728V35.128H40.5798C40.1845 35.1233 39.8439 35.4092 39.7798 35.7999L39.3439 38.4921H24.6643L24.2284 35.7999C24.1643 35.4092 23.8253 35.1233 23.4284 35.128H21.0284L21.0312 18.728ZM45.8312 45.2484C45.8312 45.4343 45.6828 45.5859 45.4953 45.5874H18.5045C18.317 45.5859 18.1685 45.4343 18.1685 45.2484V36.728H22.7561L23.1999 39.4202C23.264 39.8108 23.603 40.0967 23.9999 40.0921H40.0407C40.436 40.0967 40.7766 39.8108 40.8407 39.4202L41.2766 36.728H45.8314L45.8312 45.2484Z" fill="#4F46BA"/>
<path d="M34.0564 41.8592H29.944C29.5018 41.8592 29.144 42.2186 29.144 42.6592C29.144 43.1014 29.5018 43.4592 29.944 43.4592H34.0564C34.4986 43.4592 34.8564 43.1014 34.8564 42.6592C34.8564 42.2186 34.4986 41.8592 34.0564 41.8592Z" fill="#4F46BA"/>
<path d="M29.1564 27.092L31.2002 24.6592V34.4312C31.2002 34.8734 31.558 35.2312 32.0002 35.2312C32.4423 35.2312 32.8002 34.8734 32.8002 34.4312V24.6592L34.8439 27.0904V27.092C34.997 27.2717 35.2205 27.3764 35.4564 27.3764C35.6423 27.3779 35.8236 27.3154 35.9689 27.1998C36.3048 26.917 36.3501 26.4139 36.0689 26.0764L32.6126 21.9484C32.4548 21.7765 32.233 21.678 32.0002 21.678C31.7674 21.678 31.5455 21.7765 31.3877 21.9484L27.9314 26.064C27.6721 26.403 27.7252 26.8874 28.0518 27.164C28.3799 27.439 28.8674 27.4077 29.1564 27.0921L29.1564 27.092Z" fill="#4F46BA"/>
</svg>
