<svg width="37" height="27" viewBox="0 0 37 27" fill="none" xmlns="http://www.w3.org/2000/svg">
<path d="M36.5415 0.26625L35.6193 5.88921C33.7749 5.75768 32.2764 6.02075 31.1236 6.6784C29.9709 7.30318 29.164 8.2239 28.7029 9.44056C28.2802 10.6243 28.2034 12.0054 28.4724 13.5838H36.5415V27H20.8644V13.5838C20.8644 8.84867 22.1516 5.26444 24.726 2.83111C27.3004 0.3649 31.2389 -0.490055 36.5415 0.26625ZM15.6771 0.26625L14.7549 5.88921C12.9105 5.75768 11.412 6.02075 10.2593 6.6784C9.10655 7.30318 8.29964 8.2239 7.83854 9.44056C7.41588 10.6243 7.33903 12.0054 7.608 13.5838H15.6771V27H0V13.5838C0 8.84867 1.28721 5.26444 3.86164 2.83111C6.43606 0.3649 10.3745 -0.490055 15.6771 0.26625Z" fill="#FF7F5C"/>
</svg>
